<svg width="30" height="30" viewBox="0 0 30 30" fill="none" xmlns="http://www.w3.org/2000/svg">
<path d="M12.725 21.2599C12.875 21.2599 12.9887 21.2549 13.0637 21.2449C13.1517 21.2271 13.231 21.18 13.2887 21.1112C13.3637 21.0324 13.4012 20.9187 13.4012 20.7687L13.3962 20.0724C13.3925 19.6287 13.3912 19.2762 13.3912 19.0174L13.1562 19.0587C12.9682 19.0883 12.7777 19.1 12.5875 19.0937C12.3484 19.0895 12.1101 19.0656 11.875 19.0224C11.6254 18.9759 11.3906 18.8705 11.19 18.7149C10.9797 18.5559 10.8227 18.3366 10.74 18.0862L10.6375 17.8499C10.5512 17.6639 10.443 17.4889 10.315 17.3287C10.2 17.1644 10.0469 17.0306 9.86871 16.9387L9.79746 16.8887C9.74839 16.8525 9.7039 16.8106 9.66496 16.7637C9.62716 16.7211 9.59598 16.6731 9.57246 16.6212C9.55246 16.5737 9.56871 16.5337 9.62246 16.5037C9.7168 16.4658 9.81856 16.45 9.91996 16.4574L10.125 16.4887C10.2625 16.5149 10.4312 16.5974 10.6325 16.7337C10.8325 16.8712 10.9987 17.0474 11.1287 17.2662C11.2862 17.5462 11.475 17.7599 11.6975 17.9062C11.8939 18.0447 12.1272 18.1213 12.3675 18.1262C12.5925 18.1262 12.7875 18.1099 12.9512 18.0762C13.1106 18.0431 13.2655 17.9911 13.4125 17.9212C13.4737 17.4649 13.64 17.1124 13.9125 16.8674C13.5587 16.8325 13.2081 16.7706 12.8637 16.6824C12.5275 16.5898 12.2041 16.4554 11.9012 16.2824C11.584 16.1104 11.3037 15.8776 11.0762 15.5974C10.8587 15.3237 10.68 14.9662 10.5387 14.5224C10.3914 14.024 10.321 13.5059 10.33 12.9862C10.33 12.1612 10.6 11.4574 11.1387 10.8774C10.8862 10.2562 10.91 9.55995 11.21 8.7887C11.4087 8.7262 11.7025 8.77245 12.0912 8.9262C12.48 9.07995 12.7662 9.2112 12.9462 9.3212C13.1275 9.42995 13.2712 9.5212 13.3812 9.5962C14.0214 9.41839 14.683 9.32923 15.3475 9.3312C16.0225 9.3312 16.6787 9.4187 17.3137 9.59745L17.7012 9.3512C17.9687 9.1887 18.2825 9.03745 18.6437 8.9012C19.0062 8.7637 19.2825 8.7262 19.4737 8.7887C19.7812 9.55995 19.8087 10.2562 19.555 10.8762C20.095 11.4574 20.365 12.1599 20.365 12.9862C20.365 13.5662 20.295 14.0799 20.155 14.5274C20.015 14.9749 19.8337 15.3324 19.6125 15.6024C19.3812 15.8799 19.0996 16.111 18.7825 16.2837C18.4796 16.4567 18.1562 16.5911 17.82 16.6837C17.4751 16.7715 17.1241 16.8329 16.77 16.8674C17.125 17.1737 17.3025 17.6587 17.3025 18.3212V20.7674C17.3025 20.8837 17.32 20.9774 17.3537 21.0499C17.3696 21.0845 17.3923 21.1155 17.4204 21.141C17.4486 21.1666 17.4816 21.1862 17.5175 21.1987C17.5925 21.2249 17.66 21.2424 17.7175 21.2487C17.7762 21.2562 17.8587 21.2599 17.9675 21.2599H12.7262H12.725Z" fill="white"/>
<path d="M15 25C17.6522 25 20.1957 23.9464 22.0711 22.0711C23.9464 20.1957 25 17.6522 25 15C25 12.3478 23.9464 9.8043 22.0711 7.92893C20.1957 6.05357 17.6522 5 15 5C12.3478 5 9.8043 6.05357 7.92893 7.92893C6.05357 9.8043 5 12.3478 5 15C5 17.6522 6.05357 20.1957 7.92893 22.0711C9.8043 23.9464 12.3478 25 15 25ZM15 27.5C8.09625 27.5 2.5 21.9037 2.5 15C2.5 8.09625 8.09625 2.5 15 2.5C21.9037 2.5 27.5 8.09625 27.5 15C27.5 21.9037 21.9037 27.5 15 27.5Z" fill="white"/>
</svg>
