<svg width="30" height="30" viewBox="0 0 30 30" fill="none" xmlns="http://www.w3.org/2000/svg">
<path d="M28.25 14.4365C28.25 14.3721 28.25 14.2988 28.2471 14.2139C28.2441 13.9766 28.2383 13.71 28.2324 13.4258C28.209 12.6084 28.168 11.7939 28.1035 11.0264C28.0156 9.96875 27.8867 9.08691 27.7109 8.4248C27.5254 7.73384 27.1618 7.10366 26.6565 6.59726C26.1511 6.09085 25.5216 5.72596 24.8311 5.53906C24.002 5.31641 22.3789 5.17871 20.0938 5.09375C19.0068 5.05273 17.8437 5.02637 16.6807 5.01172C16.2734 5.00586 15.8955 5.00293 15.5557 5H14.6943C14.3545 5.00293 13.9766 5.00586 13.5693 5.01172C12.4062 5.02637 11.2432 5.05273 10.1562 5.09375C7.87109 5.18164 6.24512 5.31934 5.41895 5.53906C4.72813 5.72551 4.09845 6.09024 3.593 6.59671C3.08756 7.10319 2.7241 7.73361 2.53906 8.4248C2.36035 9.08691 2.23438 9.96875 2.14648 11.0264C2.08203 11.7939 2.04102 12.6084 2.01758 13.4258C2.00879 13.71 2.00586 13.9766 2.00293 14.2139C2.00293 14.2988 2 14.3721 2 14.4365V14.6006C2 14.665 2 14.7383 2.00293 14.8232C2.00586 15.0605 2.01172 15.3271 2.01758 15.6113C2.04102 16.4287 2.08203 17.2432 2.14648 18.0107C2.23438 19.0684 2.36328 19.9502 2.53906 20.6123C2.91406 22.0156 4.01562 23.123 5.41895 23.498C6.24512 23.7207 7.87109 23.8584 10.1562 23.9434C11.2432 23.9844 12.4062 24.0107 13.5693 24.0254C13.9766 24.0312 14.3545 24.0342 14.6943 24.0371H15.5557C15.8955 24.0342 16.2734 24.0312 16.6807 24.0254C17.8437 24.0107 19.0068 23.9844 20.0938 23.9434C22.3789 23.8555 24.0049 23.7178 24.8311 23.498C26.2344 23.123 27.3359 22.0186 27.7109 20.6123C27.8896 19.9502 28.0156 19.0684 28.1035 18.0107C28.168 17.2432 28.209 16.4287 28.2324 15.6113C28.2412 15.3271 28.2441 15.0605 28.2471 14.8232C28.2471 14.7383 28.25 14.665 28.25 14.6006V14.4365ZM26.1406 14.5889C26.1406 14.6504 26.1406 14.7178 26.1377 14.7969C26.1348 15.0254 26.1289 15.2773 26.123 15.5498C26.1025 16.3291 26.0615 17.1084 26 17.832C25.9209 18.7754 25.8096 19.5488 25.6719 20.0674C25.4902 20.7441 24.957 21.2803 24.2832 21.459C23.668 21.623 22.1182 21.7549 20.0117 21.834C18.9453 21.875 17.7969 21.9014 16.6514 21.916C16.25 21.9219 15.8779 21.9248 15.5439 21.9248H14.7061L13.5986 21.916C12.4531 21.9014 11.3076 21.875 10.2383 21.834C8.13184 21.752 6.5791 21.623 5.9668 21.459C5.29297 21.2773 4.75977 20.7441 4.57812 20.0674C4.44043 19.5488 4.3291 18.7754 4.25 17.832C4.18848 17.1084 4.15039 16.3291 4.12695 15.5498C4.11816 15.2773 4.11523 15.0225 4.1123 14.7969C4.1123 14.7178 4.10938 14.6475 4.10938 14.5889V14.4482C4.10938 14.3867 4.10938 14.3193 4.1123 14.2402C4.11523 14.0117 4.12109 13.7598 4.12695 13.4873C4.14746 12.708 4.18848 11.9287 4.25 11.2051C4.3291 10.2617 4.44043 9.48828 4.57812 8.96973C4.75977 8.29297 5.29297 7.75684 5.9668 7.57812C6.58203 7.41406 8.13184 7.28223 10.2383 7.20312C11.3047 7.16211 12.4531 7.13574 13.5986 7.12109C14 7.11523 14.3721 7.1123 14.7061 7.1123H15.5439L16.6514 7.12109C17.7969 7.13574 18.9424 7.16211 20.0117 7.20312C22.1182 7.28516 23.6709 7.41406 24.2832 7.57812C24.957 7.75977 25.4902 8.29297 25.6719 8.96973C25.8096 9.48828 25.9209 10.2617 26 11.2051C26.0615 11.9287 26.0996 12.708 26.123 13.4873C26.1318 13.7598 26.1348 14.0146 26.1377 14.2402C26.1377 14.3193 26.1406 14.3896 26.1406 14.4482V14.5889ZM12.5176 18.4443L19.3145 14.4893L12.5176 10.5928V18.4443Z" fill="white"/>
</svg>
